<?xml version="1.0" encoding="UTF-8" standalone="no"?>
<!--
Copyright © 2026 <https://github.com/technosf>
SPDX-FileCopyrightText: © 2026 <https://github.com/technosf>

SPDX-License-Identifier: GPL-3.0-or-later
-->

<svg
   xml:space="preserve"
   id="io.github.tuner_labs.tuner-scalable"
   width="128"
   height="128"
   version="1.1"
   sodipodi:docname="io.github.tuner_labs.tuner-scalable.svg"
   inkscape:version="1.4.3 (0d15f75042, 2025-12-25)"
   xmlns:inkscape="http://www.inkscape.org/namespaces/inkscape"
   xmlns:sodipodi="http://sodipodi.sourceforge.net/DTD/sodipodi-0.dtd"
   xmlns:xlink="http://www.w3.org/1999/xlink"
   xmlns="http://www.w3.org/2000/svg"
   xmlns:svg="http://www.w3.org/2000/svg"><defs
   id="defs1"><linearGradient
     id="linearGradient36"
     inkscape:collect="always"><stop
       style="stop-color:#d42121;stop-opacity:1;"
       offset="0"
       id="stop37" /><stop
       style="stop-color:#de3e60;stop-opacity:0;"
       offset="1"
       id="stop38" /></linearGradient><linearGradient
     id="swatch35"><stop
       style="stop-color:#d30707;stop-opacity:0.69222808;"
       offset="0"
       id="stop36" /></linearGradient><linearGradient
     id="linearGradient19"
     inkscape:collect="always"><stop
       style="stop-color:#e4112b;stop-opacity:1;"
       offset="0.17147087"
       id="stop19" /><stop
       style="stop-color:#ffffff;stop-opacity:1;"
       offset="1"
       id="stop20" /></linearGradient><linearGradient
     inkscape:collect="always"
     xlink:href="#linearGradient19"
     id="linearGradient20"
     x1="63.866649"
     y1="91.01066"
     x2="67.21048"
     y2="91.474701"
     gradientUnits="userSpaceOnUse" /><radialGradient
     inkscape:collect="always"
     xlink:href="#swatch35"
     id="radialGradient36"
     cx="54"
     cy="63"
     fx="54"
     fy="63"
     r="1.0955"
     gradientTransform="matrix(-4.7051412,27.384757,-7.775758,-1.3360003,797.95035,-1331.6088)"
     gradientUnits="userSpaceOnUse" /><linearGradient
     inkscape:collect="always"
     xlink:href="#linearGradient36"
     id="linearGradient38"
     x1="52.9045"
     y1="63"
     x2="48.84549"
     y2="93.000031"
     gradientUnits="userSpaceOnUse" /></defs><sodipodi:namedview
   id="namedview1"
   pagecolor="#ffffff"
   bordercolor="#000000"
   borderopacity="0.25"
   inkscape:showpageshadow="2"
   inkscape:pageopacity="0.0"
   inkscape:pagecheckerboard="0"
   inkscape:deskcolor="#d1d1d1"
   inkscape:zoom="4"
   inkscape:cx="62.25"
   inkscape:cy="42.875"
   inkscape:window-width="1440"
   inkscape:window-height="923"
   inkscape:window-x="0"
   inkscape:window-y="0"
   inkscape:window-maximized="1"
   inkscape:current-layer="Layer_2" />
  <style
   id="style2813"
   type="text/css">
    .st8{fill:none;stroke:#abacae;stroke-width:1.7875;stroke-miterlimit:10}.st15{fill:#101520}
  </style>
  <g
   id="Layer_2"
   style="display:inline"
   transform="translate(0 -8)">
    <g
   id="tuner-base">
    <radialGradient
   id="SVGID_4_"
   cx="63.053"
   cy="118.115"
   r="171.588"
   gradientTransform="matrix(1.001 .00649 -.00262 .4055 .242 69.708)"
   gradientUnits="userSpaceOnUse">
      <stop
   id="stop2843"
   offset="0"
   style="stop-color:#90193a" />
      <stop
   id="stop2845"
   offset="1"
   style="stop-color:#dd3f80" />
    </radialGradient>
    <path
   id="outline"
   d="M108.5 119.5h-89c-7.2 0-13-5.8-13-13v-55c0-7.2 5.8-13 13-13h89c7.2 0 13 5.8 13 13v55c0 7.2-5.8 13-13 13z"
   style="fill:url(#SVGID_4_);stroke:#90193a" />
    <linearGradient
   id="SVGID_5_"
   x1="64.734"
   x2="64.734"
   y1="79"
   y2="47"
   gradientTransform="matrix(1.0987 0 0 1 -7.122 0)"
   gradientUnits="userSpaceOnUse">
      <stop
   id="stop2850"
   offset="0"
   style="stop-color:#de3e80" />
      <stop
   id="stop2852"
   offset="1"
   style="stop-color:#910e38" />
    </linearGradient>
    <path
   id="window-surround"
   d="M14 70.1V55.9c0-4.9 4-8.9 8.9-8.9h82.3c4.9 0 8.9 4 8.9 8.9v14.3c0 4.9-4 8.9-8.9 8.9H22.9C18 79 14 75 14 70.1Z"
   style="fill:url(#SVGID_5_)" />
    <linearGradient
   id="SVGID_6_"
   x1="64"
   x2="64"
   y1="76"
   y2="50"
   gradientUnits="userSpaceOnUse">
      <stop
   id="stop2857"
   offset=".687"
   style="stop-color:#fafafa" />
      <stop
   id="stop2859"
   offset="1"
   style="stop-color:#abacae" />
    </linearGradient>
    <path
   id="window"
   d="M105.1 76H22.9c-3.2 0-5.9-2.6-5.9-5.9V55.9c0-3.2 2.6-5.9 5.9-5.9h82.3c3.2 0 5.9 2.6 5.9 5.9v14.3c-.1 3.2-2.7 5.8-6 5.8z"
   style="fill:url(#SVGID_6_)" />
    <g
   id="dial">
      <path
   id="dial-left"
   d="M23 54v17"
   class="st8"
   style="fill:none;stroke:#abacae;stroke-width:1.7875;stroke-miterlimit:10" />
      <path
   id="line2866"
   d="M30 57v11"
   class="st8"
   style="fill:none;stroke:#abacae;stroke-width:1.7875;stroke-miterlimit:10" />
      <path
   id="line2868"
   d="M36 57v11"
   class="st8"
   style="fill:none;stroke:#abacae;stroke-width:1.7875;stroke-miterlimit:10" />
      <path
   id="line2870"
   d="M43 54v17"
   class="st8"
   style="fill:none;stroke:#abacae;stroke-width:1.7875;stroke-miterlimit:10" />
      <path
   id="line2872"
   d="M50 57v11"
   class="st8"
   style="fill:none;stroke:#abacae;stroke-width:1.7875;stroke-miterlimit:10" />
      <path
   id="line2874"
   d="M57 57v11"
   class="st8"
   style="fill:none;stroke:#abacae;stroke-width:1.7875;stroke-miterlimit:10" />
      <path
   id="line2876"
   d="M64 54v17"
   class="st8"
   style="fill:none;stroke:#abacae;stroke-width:1.7875;stroke-miterlimit:10" />
      <path
   id="line2878"
   d="M71 57v11"
   class="st8"
   style="fill:none;stroke:#abacae;stroke-width:1.7875;stroke-miterlimit:10" />
      <path
   id="line2880"
   d="M78 57v11"
   class="st8"
   style="fill:none;stroke:#abacae;stroke-width:1.7875;stroke-miterlimit:10" />
      <path
   id="line2882"
   d="M85 54v17"
   class="st8"
   style="fill:none;stroke:#abacae;stroke-width:1.7875;stroke-miterlimit:10" />
      <path
   id="line2886"
   d="M92 57v11"
   class="st8"
   style="fill:none;stroke:#abacae;stroke-width:1.7875;stroke-miterlimit:10" />
      <path
   id="line2888"
   d="M98 57v11"
   class="st8"
   style="display:inline;fill:none;stroke:#abacae;stroke-width:1.7875;stroke-miterlimit:10" />
      <path
   id="dial-right"
   d="M105 54v17"
   class="st8"
   style="display:inline;fill:none;stroke:#abacae;stroke-width:1.7875;stroke-miterlimit:10" />
    </g>
    <g
   id="knob">
      <radialGradient
   id="SVGID_7_"
   cx="65.029"
   cy="109.392"
   r="28.579"
   gradientTransform="matrix(1.0041 0 0 .757 .071 26.351)"
   gradientUnits="userSpaceOnUse">
        <stop
   id="stop2894"
   offset="0"
   style="stop-color:#fafafa" />
        <stop
   id="stop2896"
   offset="1"
   style="stop-color:#d4d4d4" />
      </radialGradient>
      <circle
   id="circle2899"
   cx="64.5"
   cy="98.5"
   r="17.5"
   style="fill:url(#SVGID_7_)" />
      <circle
   id="circle2901"
   cx="64.5"
   cy="98.5"
   r="14"
   style="fill:#273445;stroke:#de3e80;stroke-width:.9135;stroke-linecap:round;stroke-linejoin:round" />
      <radialGradient
   id="SVGID_8_"
   cx="64.311"
   cy="105.077"
   r="25.112"
   gradientTransform="matrix(.9834 0 0 .5716 1.401 44.637)"
   gradientUnits="userSpaceOnUse">
        <stop
   id="stop2903"
   offset="0"
   style="stop-color:#7e8087" />
        <stop
   id="stop2905"
   offset="1"
   style="stop-color:#fafafa" />
      </radialGradient>
      <circle
   id="knob_inner"
   cx="64.5"
   cy="98.5"
   r="12"
   style="fill:url(#SVGID_8_);stroke:#abacae;stroke-width:.6558;stroke-linecap:round;stroke-linejoin:round" />
    </g>
    <g
   id="grill">
      <g
   id="grill-right">
        <g
   id="g2923">
          <linearGradient
   id="SVGID_9_"
   x1="99.796"
   x2="99.796"
   y1="94"
   y2="87"
   gradientUnits="userSpaceOnUse">
            <stop
   id="stop2914"
   offset="0"
   style="stop-color:#de3e80" />
            <stop
   id="stop2916"
   offset="1"
   style="stop-color:#910e38" />
          </linearGradient>
          <path
   id="path2919"
   d="M89.6 94c-2.1 0-3.8-1.9-3.4-4.1.3-1.7 1.9-2.9 3.6-2.9h20.1c1.7 0 3.3 1.2 3.6 2.9.4 2.2-1.3 4.1-3.4 4.1z"
   style="fill:url(#SVGID_9_)" />
          <path
   id="path2921"
   d="M110.5 93h-21c-1.4 0-2.5-1.1-2.5-2.5s1.1-2.5 2.5-2.5h21c1.4 0 2.5 1.1 2.5 2.5s-1.1 2.5-2.5 2.5z"
   class="st15"
   style="fill:#101520" />
        </g>
        <g
   id="g2934">
          <linearGradient
   id="SVGID_10_"
   x1="100.443"
   x2="100.443"
   y1="102"
   y2="95"
   gradientUnits="userSpaceOnUse">
            <stop
   id="stop2925"
   offset="0"
   style="stop-color:#de3e80" />
            <stop
   id="stop2927"
   offset="1"
   style="stop-color:#910e38" />
          </linearGradient>
          <path
   id="path2930"
   d="M90.8 102c-2.1 0-3.8-1.9-3.4-4.1.3-1.7 1.9-2.9 3.6-2.9h18.8c1.7 0 3.3 1.2 3.6 2.9.4 2.2-1.3 4.1-3.4 4.1z"
   style="fill:url(#SVGID_10_)" />
          <path
   id="path2932"
   d="M110.5 101h-20c-1.4 0-2.5-1.1-2.5-2.5s1.1-2.5 2.5-2.5h20c1.4 0 2.5 1.1 2.5 2.5s-1.1 2.5-2.5 2.5z"
   class="st15"
   style="fill:#101520" />
        </g>
        <g
   id="g2945">
          <linearGradient
   id="SVGID_11_"
   x1="99.796"
   x2="99.796"
   y1="110"
   y2="103"
   gradientUnits="userSpaceOnUse">
            <stop
   id="stop2936"
   offset="0"
   style="stop-color:#de3e80" />
            <stop
   id="stop2938"
   offset="1"
   style="stop-color:#910e38" />
          </linearGradient>
          <path
   id="path2941"
   d="M89.6 110c-2.1 0-3.8-1.9-3.4-4.1.3-1.7 1.9-2.9 3.6-2.9h20.1c1.7 0 3.3 1.2 3.6 2.9.4 2.2-1.3 4.1-3.4 4.1z"
   style="fill:url(#SVGID_11_)" />
          <path
   id="path2943"
   d="M110.5 109h-21c-1.4 0-2.5-1.1-2.5-2.5s1.1-2.5 2.5-2.5h21c1.4 0 2.5 1.1 2.5 2.5s-1.1 2.5-2.5 2.5z"
   class="st15"
   style="fill:#101520" />
        </g>
      </g>
      <g
   id="grill-left">
        <g
   id="g2956">
          <linearGradient
   id="SVGID_12_"
   x1="171.389"
   x2="171.389"
   y1="94"
   y2="87"
   gradientTransform="matrix(-1 0 0 1 199.593 0)"
   gradientUnits="userSpaceOnUse">
            <stop
   id="stop2947"
   offset="0"
   style="stop-color:#de3e80" />
            <stop
   id="stop2949"
   offset="1"
   style="stop-color:#910e38" />
          </linearGradient>
          <path
   id="path2952"
   d="M38.4 94c2.1 0 3.8-1.9 3.4-4.1-.2-1.7-1.8-2.9-3.6-2.9h-20c-1.7 0-3.3 1.2-3.6 2.9-.5 2.2 1.2 4.1 3.4 4.1z"
   style="fill:url(#SVGID_12_)" />
          <path
   id="path2954"
   d="M17.5 93h21c1.4 0 2.5-1.1 2.5-2.5S39.9 88 38.5 88h-21c-1.4 0-2.5 1.1-2.5 2.5s1.1 2.5 2.5 2.5z"
   class="st15"
   style="fill:#101520" />
        </g>
        <g
   id="g2967">
          <linearGradient
   id="SVGID_13_"
   x1="172.036"
   x2="172.036"
   y1="102"
   y2="95"
   gradientTransform="matrix(-1 0 0 1 199.593 0)"
   gradientUnits="userSpaceOnUse">
            <stop
   id="stop2958"
   offset="0"
   style="stop-color:#de3e80" />
            <stop
   id="stop2960"
   offset="1"
   style="stop-color:#910e38" />
          </linearGradient>
          <path
   id="path2963"
   d="M37.2 102c2.1 0 3.8-1.9 3.4-4.1-.3-1.7-1.9-2.9-3.6-2.9H18.1c-1.7 0-3.3 1.2-3.6 2.9-.4 2.2 1.3 4.1 3.4 4.1z"
   style="fill:url(#SVGID_13_)" />
          <path
   id="path2965"
   d="M17.5 101h20c1.4 0 2.5-1.1 2.5-2.5S38.9 96 37.5 96h-20c-1.4 0-2.5 1.1-2.5 2.5s1.1 2.5 2.5 2.5z"
   class="st15"
   style="fill:#101520" />
        </g>
        <g
   id="g2978">
          <linearGradient
   id="SVGID_14_"
   x1="171.389"
   x2="171.389"
   y1="110"
   y2="103"
   gradientTransform="matrix(-1 0 0 1 199.593 0)"
   gradientUnits="userSpaceOnUse">
            <stop
   id="stop2969"
   offset="0"
   style="stop-color:#de3e80" />
            <stop
   id="stop2971"
   offset="1"
   style="stop-color:#910e38" />
          </linearGradient>
          <path
   id="path2974"
   d="M38.4 110c2.1 0 3.8-1.9 3.4-4.1-.3-1.7-1.9-2.9-3.6-2.9h-20c-1.7 0-3.3 1.2-3.6 2.9-.4 2.2 1.3 4.1 3.4 4.1z"
   style="fill:url(#SVGID_14_)" />
          <path
   id="path2976"
   d="M17.5 109h21c1.4 0 2.5-1.1 2.5-2.5s-1.1-2.5-2.5-2.5h-21c-1.4 0-2.5 1.1-2.5 2.5s1.1 2.5 2.5 2.5z"
   class="st15"
   style="fill:#101520" />
        </g>
      </g>
    </g>
    </g>
    <g
   id="needle-position"
   style="display:inline">
      <path
   id="needle"
   d="M 54,50 V 76"
   style="mix-blend-mode:multiply;fill:url(#radialGradient36);stroke:url(#linearGradient38);stroke-width:2.191;stroke-miterlimit:10;stroke-dasharray:none;stroke-opacity:1" />
    </g>
    <g
   id="knob-rotation"
   style="display:inline">
      <path
   id="knob-indicator"
   d="m 64.5,94.901908 c -0.288353,0 -0.480588,-0.27307 -0.480588,-0.682675 v -6.417146 c 0,-0.409605 0.192235,-0.682675 0.480588,-0.682675 0.288353,0 0.480588,0.27307 0.480588,0.682675 v 5.681813 0.735333 c 0,0.409605 -0.192235,0.682675 -0.480588,0.682675 z"
   style="fill:url(#linearGradient20);stroke:#323232;stroke-width:0.305525;stroke-opacity:0.91651207;fill-opacity:1"
   inkscape:label="knob-indicator"
   sodipodi:nodetypes="ssssscss"
   inkscape:highlight-color="#3eee08" />
    </g>
  </g>
</svg>
